<svg width="300" height="304" viewBox="0 0 300 304" fill="none" xmlns="http://www.w3.org/2000/svg">
<path d="M161.736 47.6314C186.674 47.6314 209.29 57.7572 225.661 74.1222L225.696 74.1578C242.055 90.5286 252.175 113.133 252.175 138.071C252.175 163.01 242.05 185.62 225.685 201.996L225.649 202.032C214.984 212.691 201.67 220.696 186.799 224.985C186.437 220.696 185.483 216.53 183.931 212.584C196.48 208.858 207.69 202.056 216.69 193.05C230.768 178.983 239.46 159.549 239.46 138.071C239.46 116.593 230.768 97.1587 216.702 83.0986C202.648 69.0385 183.214 60.3465 161.736 60.3465C140.257 60.3465 120.823 69.0385 106.781 83.0868C95.1205 94.7472 87.1513 110.081 84.7635 127.211C80.0946 129.681 75.5679 132.691 71.3137 136.234C71.7996 112.019 81.8247 90.1139 97.7868 74.1459L97.8223 74.1044C114.199 57.7454 136.797 47.6314 161.736 47.6314ZM189.649 135.903C198.127 135.903 204.994 142.77 204.994 151.242C204.994 159.721 198.127 166.588 189.649 166.588C181.176 166.588 174.309 159.721 174.309 151.242C174.309 142.77 181.176 135.903 189.649 135.903ZM146.449 90.6471C157.44 90.6471 166.351 99.5584 166.351 110.549C166.351 121.534 157.44 130.452 146.449 130.452C135.464 130.452 126.553 121.534 126.553 110.549C126.553 99.5584 135.464 90.6471 146.449 90.6471ZM127.637 156.676C138.415 167.453 135.002 188.345 120.006 203.341C107.658 215.689 91.2989 220.186 79.8932 215.357C70.6264 216.323 62.7106 219.902 58.4682 224.814C40.6635 245.427 59.3096 255.588 37.5766 275.864C30.2414 282.707 20.6369 287.37 11.1154 287.886C7.42407 288.093 3.72092 287.832 0 287.05C24.4526 283.003 34.6792 272.67 38.8919 261.774C45.0125 245.96 36.8596 236.723 48.7512 221.875C54.4511 214.759 61.4663 209.574 69.6132 205.836C63.7652 194.395 68.1023 177.182 80.9774 164.307C95.9737 149.311 116.859 145.898 127.637 156.676ZM149.892 223.712C143.149 216.975 130.078 219.108 120.699 228.493C112.973 236.219 110.164 246.446 113.174 253.58C112.576 259.374 110.336 264.328 107.261 266.982C94.368 278.121 88.0105 266.455 75.3309 280.053C71.053 284.645 68.1379 290.647 67.8061 296.601C67.6876 298.912 67.8476 301.235 68.3334 303.557C70.8634 288.265 77.3336 281.866 84.1414 279.223C94.0362 275.402 99.8131 280.503 109.104 273.061C113.553 269.5 116.794 265.11 119.147 260.008C126.298 263.67 137.058 260.95 145.11 252.91C154.495 243.525 156.628 230.454 149.892 223.712ZM161.736 0C199.857 0 234.383 15.4584 259.362 40.4384C284.348 65.4242 299.807 99.9435 299.807 138.071C299.807 176.193 284.348 210.718 259.362 235.698C234.383 260.684 199.857 276.142 161.736 276.142L160.491 276.13C163.768 273.962 166.89 271.426 169.776 268.54L169.894 268.428C171.708 266.621 173.378 264.713 174.913 262.74C204.266 259.671 230.608 246.47 250.374 226.704C273.055 204.029 287.086 172.685 287.086 138.071C287.086 103.457 273.055 72.1136 250.374 49.4326C227.693 26.7515 196.35 12.7211 161.736 12.7211C127.122 12.7211 95.7782 26.7515 73.0972 49.4326C50.4221 72.1136 36.3856 103.457 36.3856 138.071C36.3856 153.79 39.283 168.84 44.5681 182.71C44.343 184.286 44.183 185.868 44.0823 187.439C41.3034 189.791 38.6253 192.404 36.0479 195.283C28.1024 177.852 23.6646 158.477 23.6646 138.071C23.6646 99.9435 39.123 65.4242 64.1089 40.4384C89.0888 15.4584 123.614 0 161.736 0Z" fill="white"/>
</svg>
