<svg width="299" height="284" viewBox="0 0 299 284" fill="none" xmlns="http://www.w3.org/2000/svg">
<path d="M295.362 28.3692C290.798 19.5838 283.089 13.4097 273.661 10.9879C264.327 8.59098 254.426 10.2554 246.457 15.5624L213.593 37.4684C212.268 38.3604 210.813 39.0331 209.293 39.4767C209.178 35.7044 207.434 32.1115 204.469 29.5801C158.445 -9.8567 139.942 -9.87165 94.5008 29.605C91.5557 32.1713 89.8266 35.7443 89.707 39.4767C88.1871 39.0331 86.727 38.3604 85.3965 37.4734L53.6338 16.295C40.0348 7.22559 19.5689 9.28364 8.9398 20.7898C3.17926 27.0387 0 35.1712 0 43.6824V58.1934C0 66.9688 3.35367 75.2907 9.43812 81.6193C11.1473 83.3983 12.9812 85.1175 14.9993 86.8416C15.403 98.1036 27.3725 109.55 44.3751 114.334C58.3927 118.27 72.2759 116.616 80.0546 110.297C82.1874 110.512 84.1557 110.616 86.0344 110.616C94.3264 110.616 102.633 108.992 110.138 105.962L112.899 114.797C110.731 121.076 109.64 127.694 109.64 134.486C109.64 150.232 112.844 162.376 119.167 170.639C118.789 173.22 119.058 175.592 119.297 177.755C119.442 179.035 119.606 180.366 119.606 181.826C119.606 188.414 120.991 194.892 123.617 200.557C123.936 201.245 123.568 201.918 123.388 202.187C120.917 205.865 119.606 210.026 119.606 214.216C119.606 217.361 120.334 220.45 121.779 223.405C122.028 223.909 122.028 224.462 121.784 224.96C120.339 227.92 119.606 231.01 119.606 234.154C119.606 237.298 120.334 240.388 121.779 243.343C122.028 243.846 122.028 244.399 121.784 244.898C120.339 247.858 119.606 250.947 119.606 254.092V283.991H129.572V254.092C129.572 252.477 129.966 250.858 130.738 249.263C132.328 245.999 132.328 242.252 130.733 238.983C129.966 237.398 129.572 235.774 129.572 234.159C129.572 232.544 129.966 230.925 130.738 229.33C132.328 226.066 132.328 222.319 130.733 219.05C129.966 217.465 129.572 215.841 129.572 214.226C129.572 211.994 130.275 209.816 131.655 207.758C133.987 204.31 134.361 200.054 132.662 196.377C130.644 192.016 129.572 186.988 129.572 181.836C129.572 180.206 129.408 178.721 129.248 177.281L132.328 178.821C133.046 179.175 133.803 179.344 134.55 179.344C136.379 179.344 138.138 178.338 139.015 176.588C140.246 174.127 139.25 171.132 136.788 169.901L127.803 165.411C122.456 159.068 119.611 148.429 119.611 134.496C119.611 128.312 120.692 122.317 122.825 116.681L123.433 115.076L116.367 92.4726L110.158 95.0589C102.713 98.7215 94.3712 100.66 86.0443 100.66C83.9365 100.66 81.6342 100.496 79.0131 100.147L76.4567 99.8128L74.7076 101.701C70.761 105.967 59.9973 108.384 47.076 104.741C32.7344 100.7 24.0986 91.4561 25.0304 85.3467L25.469 82.5063L23.2265 80.7123C20.73 78.7041 18.5772 76.7458 16.6238 74.7126C12.3333 70.2477 9.96633 64.3775 9.96633 58.1934V43.6824C9.96633 37.6827 12.2038 31.9521 16.27 27.5469C23.6302 19.5739 38.5149 18.1886 48.1075 24.5869L79.8652 45.7654C84.8434 49.0892 90.8581 50.5393 96.813 49.9164L102.843 49.2636L99.7281 39.2923C99.8776 38.5049 100.341 37.7325 101.044 37.1246C142.877 0.792325 155.555 0.787343 197.991 37.1495C198.679 37.7375 199.132 38.495 199.282 39.2873L196.162 49.2636L202.192 49.9164C208.172 50.5592 214.162 49.0892 219.13 45.7654L251.989 23.8594C257.6 20.117 264.601 18.946 271.179 20.6403C277.836 22.3545 283.288 26.7347 286.522 32.9686C288.167 36.128 289.034 40.0148 289.034 44.2206V58.1984C289.034 64.2779 286.861 69.9388 282.924 74.1445C280.004 77.259 276.611 80.214 272.843 82.9299L271.478 83.9115L270.985 85.5211C269.046 91.8896 262.598 98.7913 254.156 103.53C240.518 111.174 227.541 110.347 224.442 104.826C224.243 104.467 224.098 104.098 223.968 103.72L222.703 99.9125L218.711 100.341C208.237 101.457 198.046 99.5736 188.563 94.9243L182.643 92.4577L175.567 115.071L176.175 116.681C178.313 122.312 179.394 128.302 179.394 134.491C179.394 148.424 176.549 159.063 171.202 165.406L162.217 169.896C159.755 171.127 158.759 174.122 159.99 176.583C160.867 178.333 162.621 179.339 164.454 179.339C165.202 179.339 165.964 179.17 166.677 178.816L169.757 177.276C169.597 178.721 169.433 180.201 169.433 181.831C169.433 186.983 168.361 192.011 166.338 196.377C164.644 200.049 165.018 204.305 167.345 207.748C168.73 209.811 169.433 211.989 169.433 214.221C169.433 215.836 169.039 217.455 168.267 219.05C166.677 222.314 166.677 226.061 168.272 229.33C169.039 230.915 169.433 232.539 169.433 234.154C169.433 235.769 169.039 237.388 168.267 238.983C166.677 242.247 166.677 245.994 168.272 249.263C169.039 250.848 169.433 252.472 169.433 254.087V283.986H179.399V254.087C179.399 250.942 178.671 247.853 177.226 244.898C176.977 244.394 176.977 243.841 177.221 243.343C178.666 240.383 179.399 237.293 179.399 234.149C179.399 231.005 178.671 227.915 177.226 224.96C176.977 224.457 176.977 223.904 177.221 223.405C178.666 220.445 179.399 217.356 179.399 214.211C179.399 210.021 178.088 205.86 175.612 202.177C175.437 201.913 175.069 201.24 175.383 200.557C178.009 194.887 179.399 188.409 179.399 181.821C179.399 180.361 179.558 179.025 179.708 177.75C179.952 175.587 180.221 173.215 179.838 170.634C186.166 162.372 189.365 150.228 189.365 134.481C189.365 127.684 188.269 121.066 186.101 114.787L188.872 105.952C197.503 109.41 206.762 111.01 216.25 110.522C223.111 121.161 241.614 121.973 259.03 112.211C269.121 106.545 276.82 98.3677 279.959 90.0558C283.742 87.2303 287.175 84.1657 290.195 80.9466C295.876 74.887 299 66.8043 299 58.1884V44.2107C298.995 38.3355 297.774 33.0035 295.362 28.3692Z" fill="white"/>
<path d="M74.3391 54.0562L41.4851 32.1502C36.0086 28.4876 28.6634 29.2101 23.9842 33.8843C21.373 36.5055 19.9329 39.9887 19.9329 43.6812V58.1922C19.9329 61.7851 21.3032 65.1936 23.7898 67.7898C26.8445 70.974 30.4424 73.8643 34.7827 76.6249L36.2677 77.5668L38.0218 77.3724C43.0797 76.7894 48.7256 77.3276 54.3416 78.9172C60.8845 80.756 66.7946 83.8854 70.9804 87.7374L71.9621 88.6443L76.422 89.631C79.5963 90.3436 82.8204 90.6874 86.0445 90.6874C92.9213 90.6874 99.7732 89.0978 105.987 85.9933L113.362 82.9137L105.683 58.3517L101.263 59.2686C91.8599 61.202 82.3072 59.3633 74.3391 54.0562ZM78.5897 79.8989L76.6961 79.4803C71.4787 75.0154 64.5521 71.4325 57.0425 69.3196C50.8484 67.5755 44.5647 66.8878 38.7393 67.3014C35.7096 65.2583 33.1582 63.1505 30.9855 60.8881C30.2829 60.1556 29.8992 59.1988 29.8992 58.1922V43.6812C29.8992 42.6248 30.2929 41.668 31.0354 40.9305C32.3559 39.615 34.4239 39.4107 35.9537 40.4372L68.8127 62.3432C77.7476 68.2981 88.2471 70.8694 98.8064 69.7233L101.158 77.2578C94.1621 80.6513 86.1591 81.5882 78.5897 79.8989Z" fill="white"/>
<path d="M212.951 90.6824C216.17 90.6824 219.399 90.3385 222.568 89.6309L230.835 87.7921L231.832 86.8453C234.513 84.3039 237.607 82.0465 241.036 80.123C249.054 75.6282 257.7 73.6748 264.183 74.9306L266.365 75.3542L268.129 74.0137C270.82 71.9806 273.137 69.9424 275.205 67.7847C277.692 65.1885 279.062 61.78 279.062 58.1871V43.6762C279.062 39.9836 277.622 36.5054 275.001 33.8693C270.342 29.22 262.987 28.4875 257.515 32.1401L224.656 54.0461C216.693 59.3532 207.115 61.197 197.737 59.2535L193.317 58.3366L185.638 82.8937L193.008 85.9783C199.222 89.0977 206.074 90.6824 212.951 90.6824ZM200.199 69.7282C210.723 70.8544 221.258 68.303 230.187 62.3481L263.051 40.4371C264.576 39.4205 266.649 39.6099 267.955 40.9255C268.702 41.6729 269.096 42.6297 269.096 43.6861V58.1971C269.096 59.2037 268.712 60.1655 268.01 60.898C266.729 62.2335 265.324 63.5142 263.744 64.7998C255.347 63.8729 245.451 66.23 236.162 71.4374C232.455 73.5154 229.046 75.9422 226.022 78.658L220.406 79.9088C212.826 81.5831 204.838 80.6463 197.847 77.2627L200.199 69.7282Z" fill="white"/>
<path d="M164.45 134.491C164.45 130.121 163.697 125.905 162.207 121.958C160.642 117.812 160.503 113.198 161.823 108.967L166.747 93.2154C167.579 90.5644 168.924 88.1575 170.743 86.0646L172.173 84.4152L171.934 82.2425C171.625 79.5018 171.894 76.756 172.722 74.1L177.695 58.1937C178.532 55.5277 179.877 53.1109 181.716 51.018L183.156 49.3685L182.917 47.1909C182.872 46.8022 182.837 46.4135 182.817 46.0199L182.708 43.8073L180.989 42.4071C166.094 30.273 156.312 24.8613 149.276 24.8613C142.284 24.8613 132.632 30.2531 117.991 42.3423L116.287 43.7475L116.183 45.9501C116.163 46.3637 116.128 46.7673 116.078 47.1759L115.834 49.3586L117.279 51.013C119.108 53.1109 120.463 55.5228 121.3 58.1887L126.268 74.085C127.101 76.751 127.37 79.4968 127.061 82.2375L126.822 84.4102L128.252 86.0596C130.071 88.1525 131.416 90.5544 132.248 93.2055L137.172 108.962C138.492 113.198 138.353 117.807 136.788 121.953C135.298 125.9 134.546 130.116 134.546 134.486C134.546 148.957 137.869 154.309 139.299 155.934L146.914 149.515C146.889 149.48 144.512 145.967 144.512 134.486C144.512 131.322 145.05 128.292 146.111 125.476C148.464 119.262 148.668 112.341 146.68 105.992L141.756 90.2305C140.73 86.9516 139.175 83.9168 137.127 81.196C137.256 77.7975 136.808 74.4239 135.776 71.1251L130.803 55.2188C129.961 52.5229 128.76 49.9964 127.225 47.6693C141.143 36.5618 146.979 34.8277 149.266 34.8277C151.588 34.8277 157.518 36.5768 171.705 47.744C170.19 50.0512 169.009 52.5528 168.177 55.2188L163.199 71.135C162.177 74.4239 161.724 77.8025 161.853 81.201C159.805 83.9268 158.25 86.9566 157.224 90.2405L152.301 105.997C150.317 112.346 150.522 119.267 152.869 125.481C153.93 128.292 154.468 131.327 154.468 134.491C154.468 145.773 152.166 149.361 152.191 149.361L152.196 149.356L159.681 155.934C161.126 154.314 164.45 148.967 164.45 134.491Z" fill="white"/>
</svg>
