<svg width="240" height="322" viewBox="0 0 240 322" fill="none" xmlns="http://www.w3.org/2000/svg">
<path d="M188.975 7.93547C163.141 -2.13889 141.685 -2.62876 125.214 6.51058C99.6303 20.7005 93.2675 54.7138 90.8736 67.5217C87.8951 83.4762 76.8249 112.814 36.093 130.281C22.3911 136.144 -19.889 161.488 11.1082 241.217L12.5116 244.745C19.0318 260.966 25.7558 277.775 2.14763 309.759C0.318687 312.242 0.842519 315.725 3.31865 317.552C5.77869 319.381 9.28997 318.857 11.1082 316.397C38.4207 279.384 29.7945 257.873 22.8488 240.586L21.4883 237.145C-5.1449 168.659 25.9024 146.756 40.4839 140.524C85.9785 121.017 98.4378 87.6883 101.819 69.5634C105.45 50.1745 112.007 26.5896 130.611 16.2542C144.047 8.80793 162.311 9.49982 184.913 18.3281C233.248 37.1771 241.935 88.3266 210.734 170.382C198.715 201.975 158.501 263.581 115.762 269.753C108.723 270.775 100.444 270.146 91.637 269.503C74.0877 268.151 55.9181 266.781 43.1549 278.091C34.5161 285.766 29.9321 297.981 29.1652 315.487C29.0293 318.546 31.4196 321.169 34.4947 321.289H34.7396C37.7181 321.289 40.1674 318.957 40.314 315.964C40.9398 301.617 44.283 291.949 50.5475 286.43C59.7798 278.22 75.552 279.407 90.7878 280.594C99.7966 281.279 109.115 281.987 117.344 280.8C167.46 273.548 209.601 204.66 221.15 174.331C263.286 63.5975 226.891 22.7297 188.975 7.93547Z" fill="white"/>
<path d="M63.2587 167.756C49.4335 170.588 43.4944 179.786 42.8472 180.822C31.6554 199.274 34.1047 215.974 38.1434 226.761C44.6976 244.277 58.8124 255.817 69.121 259.105C76.7246 261.543 83.79 262.741 90.3013 262.741C99.555 262.741 107.681 260.29 114.594 255.426C130.32 244.343 134.913 223.81 136.232 213.85L137.822 213.871C185.492 213.871 199.927 167.681 205.523 149.801C215.256 118.656 215.418 94.7005 205.98 78.5833C198.295 65.4482 186.844 62.5859 186.592 62.5859V62.5966C176.033 58.5025 166.931 58.7599 159.572 63.4065L158.875 63.8642C158.353 58.161 156.991 53.2552 154.826 49.4722C152.246 45.0027 148.489 42.0045 143.961 40.8442L141.131 40.2775C128.85 38.6291 122.945 48.1278 121.502 53.3858L121.492 56.2606C124.458 67.6097 119.745 77.9129 116.5 82.2233C101.972 101.519 103.524 120.091 107.373 132.255C96.5569 127.314 85.4974 125.152 78.6215 132.447C74.4737 136.861 72.5357 142.414 73.0256 148.476C73.5584 155.159 76.9731 161.976 81.3425 168.158C74.9725 166.723 68.9529 166.594 63.2587 167.756ZM110.881 182.531C103.778 177.076 85.1291 160.117 84.1387 147.574C83.9045 144.597 84.7269 142.224 86.7239 140.084C89.3216 137.353 98.704 138.674 117.403 150.65L119.307 151.417C125.38 156.282 132.136 158.461 139.266 157.905C160.614 156.282 177.749 130.151 178.48 129.036C180.136 126.461 179.406 123.003 176.835 121.344C174.277 119.696 170.827 120.397 169.139 122.971C165.057 129.259 151.568 145.8 138.428 146.79C132.626 147.203 127.477 144.695 122.818 139.48C122.116 138.49 105.807 115.012 125.425 88.924C130.733 81.8908 135.653 69.0006 132.719 55.204C133.542 53.3965 135.544 50.7237 139.692 51.3226L141.129 51.5997C142.184 51.8715 143.72 52.5258 145.168 55.0449C148.184 60.2635 148.792 69.8623 147.029 80.9665C144.95 87.1166 144.546 92.3263 144.515 92.7393C144.308 95.6034 146.299 98.1438 149.119 98.6337C152.092 99.1468 154.682 97.3769 155.444 94.6218C156.477 90.8549 157.295 87.1756 157.893 83.6053C159.374 79.5398 161.746 75.2329 165.545 72.8283C169.757 70.1841 175.475 70.2091 183.368 73.2306C183.683 73.3056 191.259 75.19 196.584 84.5314C201.799 93.6868 205.728 111.867 194.928 146.469C186.198 174.398 171.098 205.88 131.739 202.44C130.286 202.352 128.718 202.789 127.558 203.813C126.397 204.837 125.739 206.273 125.659 207.798C125.648 208.05 124.49 234.905 108.181 246.358C99.4067 252.54 87.4372 253.237 72.5661 248.48C64.6729 245.966 53.592 236.124 48.6326 222.832C45.4645 214.374 43.548 201.222 52.4317 186.602C52.4639 186.535 56.3345 180.548 65.5436 178.674C67.301 178.328 69.1406 178.118 71.0465 178.118C80.6703 178.118 92.0408 182.67 104.277 191.466C106.787 193.252 110.176 192.707 112.005 190.281C113.756 187.832 113.287 184.403 110.881 182.531Z" fill="white"/>
</svg>
